<svg width="376" height="70" viewBox="0 0 376 70" fill="none" xmlns="http://www.w3.org/2000/svg">
<path d="M13.088 67.272L11.1919 71.8985L11.1919 71.8985L13.088 67.272ZM3.68 60.168L-0.349408 63.1284L-0.32998 63.1548L-0.310206 63.181L3.68 60.168ZM0.0320003 48.84V43.84H-5.11503L-4.9659 48.9849L0.0320003 48.84ZM17.504 48.84L22.4779 48.3299L22.0174 43.84H17.504V48.84ZM20.096 54.6L16.7247 58.2924L16.7694 58.3333L16.8151 58.373L20.096 54.6ZM31.616 54.888L34.6732 58.8444L34.7283 58.8019L34.7822 58.7578L31.616 54.888ZM32 46.056L28.4645 49.5915L28.515 49.642L28.5669 49.6911L32 46.056ZM27.872 43.368L25.8583 47.9446L25.891 47.9589L25.9238 47.9728L27.872 43.368ZM20.96 40.968L19.4846 45.7454L19.5086 45.7528L19.5326 45.7599L20.96 40.968ZM3.2 30.984L7.1883 27.9685L7.1883 27.9685L3.2 30.984ZM7.04 6.024L10.102 9.97675L10.1193 9.96336L10.1364 9.94983L7.04 6.024ZM42.752 6.024L39.6556 9.94983L39.6727 9.96336L39.69 9.97675L42.752 6.024ZM50.048 20.808V25.808H55.3069L55.0416 20.5558L50.048 20.808ZM32.288 20.808L27.2966 21.1016L27.5735 25.808H32.288V20.808ZM29.888 15.72L26.6071 19.493L26.6548 19.5345L26.7036 19.5748L29.888 15.72ZM19.424 15.432L22.6447 19.2566L22.7021 19.2082L22.758 19.1582L19.424 15.432ZM20.672 25.032L23.2247 20.7327L23.2247 20.7327L20.672 25.032ZM30.272 28.968L31.874 24.2316L31.8426 24.221L31.8111 24.2108L30.272 28.968ZM40.832 33.192L38.5959 37.6641L38.6168 37.6746L38.6378 37.6848L40.832 33.192ZM47.936 39.048L43.9839 42.1109L43.9839 42.1109L47.936 39.048ZM47.936 59.4L43.7106 56.7268L43.6909 56.7579L43.6717 56.7892L47.936 59.4ZM39.488 66.888L37.2519 62.4159L37.2519 62.4159L39.488 66.888ZM26.336 64.672C21.9506 64.672 18.1941 63.9611 14.9841 62.6455L11.1919 71.8985C15.7899 73.7829 20.8654 74.672 26.336 74.672V64.672ZM14.9841 62.6455C11.8469 61.3597 9.45773 59.5222 7.67021 57.155L-0.310206 63.181C2.63827 67.0858 6.52114 69.9843 11.1919 71.8985L14.9841 62.6455ZM7.70941 57.2076C6.08577 54.9977 5.1326 52.2383 5.0299 48.6951L-4.9659 48.9849C-4.8126 54.2737 -3.33377 59.0663 -0.349408 63.1284L7.70941 57.2076ZM0.0320003 53.84H17.504V43.84H0.0320003V53.84ZM12.5301 49.3501C12.8778 52.7402 14.129 55.9225 16.7247 58.2924L23.4673 50.9076C23.119 50.5895 22.6422 49.9318 22.4779 48.3299L12.5301 49.3501ZM16.8151 58.373C19.3816 60.6048 22.5517 61.52 25.856 61.52V51.52C24.4243 51.52 23.7544 51.1552 23.3769 50.827L16.8151 58.373ZM25.856 61.52C28.9936 61.52 32.1181 60.8189 34.6732 58.8444L28.5588 50.9316C28.2979 51.1331 27.5824 51.52 25.856 51.52V61.52ZM34.7822 58.7578C37.4655 56.5623 38.728 53.5129 38.728 50.184H28.728C28.728 50.5784 28.6602 50.7521 28.6387 50.8C28.6227 50.8356 28.5898 50.9037 28.4498 51.0182L34.7822 58.7578ZM38.728 50.184C38.728 47.2218 37.6402 44.5054 35.4331 42.4209L28.5669 49.6911C28.6224 49.7435 28.6501 49.7795 28.6623 49.7969C28.6741 49.8136 28.6796 49.8247 28.6838 49.8347C28.6878 49.8443 28.728 49.9383 28.728 50.184H38.728ZM35.5355 42.5205C33.9202 40.9051 31.9756 39.675 29.8202 38.7632L25.9238 47.9728C27.0964 48.469 27.9038 49.0309 28.4645 49.5915L35.5355 42.5205ZM29.8857 38.7914C28.0016 37.9624 25.4649 37.0928 22.3874 36.1761L19.5326 45.7599C22.4711 46.6352 24.5424 47.3656 25.8583 47.9446L29.8857 38.7914ZM22.4354 36.1906C18.2234 34.8899 14.936 33.6337 12.4982 32.4432L8.10982 41.4288C11.176 42.9263 14.9926 44.3581 19.4846 45.7454L22.4354 36.1906ZM12.4982 32.4432C10.5036 31.4691 8.73452 30.0135 7.1883 27.9685L-0.788297 33.9995C1.63349 37.2025 4.60041 39.7149 8.10982 41.4288L12.4982 32.4432ZM7.1883 27.9685C6.02658 26.432 5.224 24.1588 5.224 20.712H-4.776C-4.776 25.7132 -3.59458 30.288 -0.788296 33.9995L7.1883 27.9685ZM5.224 20.712C5.224 15.8242 6.9032 12.4547 10.102 9.97675L3.97801 2.07125C-1.9112 6.63332 -4.776 13.0558 -4.776 20.712H5.224ZM10.1364 9.94983C13.5896 7.22621 18.3292 5.648 24.8 5.648V-4.352C16.6788 -4.352 9.57841 -2.34621 3.94357 2.09817L10.1364 9.94983ZM24.8 5.648C31.4222 5.648 36.2169 7.23762 39.6556 9.94983L45.8484 2.09817C40.1991 -2.35762 33.0258 -4.352 24.8 -4.352V5.648ZM39.69 9.97675C42.9533 12.5046 44.7993 16.0104 45.0544 21.0602L55.0416 20.5558C54.6567 12.9336 51.6387 6.58335 45.814 2.07125L39.69 9.97675ZM50.048 15.808H32.288V25.808H50.048V15.808ZM37.2794 20.5144C37.0825 17.1678 35.7713 14.0947 33.0724 11.8652L26.7036 19.5748C26.9487 19.7773 27.2375 20.0962 27.2966 21.1016L37.2794 20.5144ZM33.1689 11.947C30.6272 9.7368 27.5037 8.8 24.224 8.8V18.8C25.5523 18.8 26.2048 19.1432 26.6071 19.493L33.1689 11.947ZM24.224 8.8C21.2882 8.8 18.411 9.6291 16.09 11.7058L22.758 19.1582C22.869 19.0589 23.1918 18.8 24.224 18.8V8.8ZM16.2033 11.6074C13.5868 13.8109 12.6 16.8828 12.6 19.944H22.6C22.6 19.4551 22.6754 19.2418 22.6916 19.2019C22.6991 19.1833 22.6973 19.1926 22.6807 19.2156C22.6639 19.2389 22.6482 19.2536 22.6447 19.2566L16.2033 11.6074ZM12.6 19.944C12.6 24.0772 14.7274 27.3173 18.1193 29.3313L23.2247 20.7327C22.7666 20.4607 22.6564 20.2771 22.6483 20.2637C22.6406 20.2509 22.6336 20.2372 22.6258 20.2076C22.6172 20.1751 22.6 20.0935 22.6 19.944H12.6ZM18.1193 29.3313C20.6584 30.8389 24.2875 32.287 28.7329 33.7252L31.8111 24.2108C27.5525 22.833 24.7816 21.6571 23.2247 20.7327L18.1193 29.3313ZM28.67 33.7044C32.9055 35.137 36.19 36.4612 38.5959 37.6641L43.0681 28.7199C40.098 27.2348 36.3425 25.743 31.874 24.2316L28.67 33.7044ZM38.6378 37.6848C40.6627 38.6737 42.4411 40.1201 43.9839 42.1109L51.8881 35.9851C49.4629 32.8559 46.5053 30.3983 43.0262 28.6992L38.6378 37.6848ZM43.9839 42.1109C45.1364 43.598 45.912 45.7358 45.912 48.936H55.912C55.912 44.0722 54.7036 39.618 51.8881 35.9851L43.9839 42.1109ZM45.912 48.936C45.912 51.8643 45.1704 54.4194 43.7106 56.7268L52.1614 62.0732C54.6696 58.1086 55.912 53.6877 55.912 48.936H45.912ZM43.6717 56.7892C42.3011 59.028 40.2376 60.923 37.2519 62.4159L41.7241 71.3601C46.1624 69.141 49.7309 66.044 52.2003 62.0108L43.6717 56.7892ZM37.2519 62.4159C34.3695 63.8571 30.7827 64.672 26.336 64.672V74.672C32.0013 74.672 37.1825 73.6309 41.7241 71.3601L37.2519 62.4159ZM83.0945 65.256L80.6482 69.6167L80.6595 69.623L80.6708 69.6293L83.0945 65.256ZM70.5185 52.968L66.1902 55.4711L66.2081 55.5021L66.2264 55.5328L70.5185 52.968ZM70.5185 17.352L66.2264 14.7872L66.2148 14.8066L66.2034 14.8261L70.5185 17.352ZM83.0945 5.064L80.6708 0.69073L80.6595 0.696978L80.6482 0.703284L83.0945 5.064ZM117.943 5.064L115.496 9.42471L115.507 9.43102L115.519 9.43727L117.943 5.064ZM130.423 17.352L126.085 19.8384L126.096 19.8582L126.107 19.8779L130.423 17.352ZM130.423 52.968L134.738 55.4939L134.744 55.4825L134.751 55.4711L130.423 52.968ZM117.943 65.256L120.389 69.6167L120.389 69.6167L117.943 65.256ZM113.431 49.32L109.734 45.9533L109.717 45.9716L109.701 45.9899L113.431 49.32ZM113.431 20.904L109.701 24.2341L109.732 24.2692L109.764 24.3037L113.431 20.904ZM87.5105 20.808L83.8442 17.4083L83.8274 17.4264L83.8108 17.4446L87.5105 20.808ZM87.5105 49.416L83.7808 52.7461L83.8122 52.7812L83.8442 52.8157L87.5105 49.416ZM100.567 64.672C95.0404 64.672 90.0559 63.3976 85.5182 60.8827L80.6708 69.6293C86.7571 73.0024 93.4206 74.672 100.567 74.672V64.672ZM85.5408 60.8953C81.067 58.3856 77.5062 54.9142 74.8106 50.4032L66.2264 55.5328C69.8028 61.5178 74.626 66.2384 80.6482 69.6167L85.5408 60.8953ZM74.8468 50.4649C72.2474 45.9701 70.9105 40.8926 70.9105 35.112H60.9105C60.9105 42.5154 62.6456 49.3419 66.1902 55.4711L74.8468 50.4649ZM70.9105 35.112C70.9105 29.3308 72.2475 24.2958 74.8336 19.8779L66.2034 14.8261C62.6455 20.9042 60.9105 27.7092 60.9105 35.112H70.9105ZM74.8106 19.9168C77.5062 15.4058 81.067 11.9344 85.5408 9.42471L80.6482 0.703284C74.626 4.0816 69.8028 8.80224 66.2264 14.7872L74.8106 19.9168ZM85.5182 9.43727C90.0559 6.92241 95.0404 5.648 100.567 5.648V-4.352C93.4206 -4.352 86.7571 -2.68241 80.6708 0.69073L85.5182 9.43727ZM100.567 5.648C106.093 5.648 111.035 6.9223 115.496 9.42471L120.389 0.703284C114.354 -2.6823 107.712 -4.352 100.567 -4.352V5.648ZM115.519 9.43727C120.036 11.9407 123.532 15.3856 126.085 19.8384L134.76 14.8656C131.297 8.82236 126.473 4.0753 120.366 0.69073L115.519 9.43727ZM126.107 19.8779C128.694 24.2958 130.031 29.3308 130.031 35.112H140.031C140.031 27.7092 138.295 20.9042 134.738 14.8261L126.107 19.8779ZM130.031 35.112C130.031 40.8926 128.694 45.9701 126.094 50.4649L134.751 55.4711C138.295 49.3419 140.031 42.5154 140.031 35.112H130.031ZM126.107 50.4421C123.479 54.9319 119.961 58.3908 115.496 60.8953L120.389 69.6167C126.42 66.2332 131.222 61.5001 134.738 55.4939L126.107 50.4421ZM115.496 60.8953C111.035 63.3977 106.093 64.672 100.567 64.672V74.672C107.712 74.672 114.354 73.0023 120.389 69.6167L115.496 60.8953ZM100.567 59.696C107.178 59.696 112.893 57.4296 117.16 52.6501L109.701 45.9899C107.568 48.3784 104.707 49.696 100.567 49.696V59.696ZM117.127 52.6866C121.401 47.9933 123.327 41.9644 123.327 35.112H113.327C113.327 40.0356 111.988 43.4787 109.734 45.9533L117.127 52.6866ZM123.327 35.112C123.327 28.2158 121.412 22.1575 117.097 17.5043L109.764 24.3037C111.977 26.6905 113.327 30.1042 113.327 35.112H123.327ZM117.16 17.5739C112.893 12.7944 107.178 10.528 100.567 10.528V20.528C104.707 20.528 107.568 21.8456 109.701 24.2341L117.16 17.5739ZM100.567 10.528C93.9394 10.528 88.1849 12.7271 83.8442 17.4083L91.1768 24.2077C93.3641 21.8489 96.3136 20.528 100.567 20.528V10.528ZM83.8108 17.4446C79.5698 22.1097 77.7105 28.1936 77.7105 35.112H87.7105C87.7105 29.9984 89.0512 26.5463 91.2102 24.1714L83.8108 17.4446ZM77.7105 35.112C77.7105 41.9868 79.5798 48.0409 83.7808 52.7461L91.2402 46.0859C89.0412 43.6231 87.7105 40.1412 87.7105 35.112H77.7105ZM83.8442 52.8157C88.1849 57.4969 93.9394 59.696 100.567 59.696V49.696C96.3136 49.696 93.3641 48.3751 91.1768 46.0163L83.8442 52.8157ZM186.211 69L181.832 71.4128L183.257 74H186.211V69ZM172.195 43.56L176.575 41.1472L175.149 38.56H172.195V43.56ZM168.259 43.56V38.56H163.259V43.56H168.259ZM168.259 69V74H173.259V69H168.259ZM151.843 69H146.843V74H151.843V69ZM151.843 1.608V-3.392H146.843V1.608H151.843ZM192.931 4.392L190.695 8.86413L190.71 8.87174L190.726 8.87924L192.931 4.392ZM201.379 12.072L197.033 14.5435L197.043 14.5621L197.054 14.5806L201.379 12.072ZM200.323 34.824L196.28 31.8831L196.262 31.9074L196.245 31.9319L200.323 34.824ZM189.187 42.312L187.756 37.5212L181.668 39.3397L184.867 44.8294L189.187 42.312ZM204.739 69V74H213.44L209.059 66.4826L204.739 69ZM168.259 31.944H163.259V36.944H168.259V31.944ZM185.155 29.736L181.696 26.1261L181.657 26.1629L181.62 26.2005L185.155 29.736ZM185.155 17.448L181.62 20.9835L181.657 21.0211L181.696 21.0579L185.155 17.448ZM168.259 15.24V10.24H163.259V15.24H168.259ZM190.591 66.5872L176.575 41.1472L167.816 45.9728L181.832 71.4128L190.591 66.5872ZM172.195 38.56H168.259V48.56H172.195V38.56ZM163.259 43.56V69H173.259V43.56H163.259ZM168.259 64H151.843V74H168.259V64ZM156.843 69V1.608H146.843V69H156.843ZM151.843 6.608H179.395V-3.392H151.843V6.608ZM179.395 6.608C184.142 6.608 187.844 7.43858 190.695 8.86413L195.167 -0.08014C190.594 -2.36659 185.273 -3.392 179.395 -3.392V6.608ZM190.726 8.87924C193.715 10.3484 195.731 12.2538 197.033 14.5435L205.726 9.60048C203.316 5.36215 199.7 2.14755 195.137 -0.0952478L190.726 8.87924ZM197.054 14.5806C198.436 16.9631 199.163 19.6708 199.163 22.824H209.163C209.163 18.0412 208.035 13.5809 205.704 9.5634L197.054 14.5806ZM199.163 22.824C199.163 26.2804 198.199 29.2442 196.28 31.8831L204.367 37.7649C207.568 33.3638 209.163 28.3276 209.163 22.824H199.163ZM196.245 31.9319C194.512 34.3752 191.827 36.3052 187.756 37.5212L190.618 47.1028C196.403 45.3748 201.142 42.3128 204.402 37.7161L196.245 31.9319ZM184.867 44.8294L200.419 71.5174L209.059 66.4826L193.507 39.7946L184.867 44.8294ZM204.739 64H186.211V74H204.739V64ZM168.259 36.944H178.435V26.944H168.259V36.944ZM178.435 36.944C182.178 36.944 185.932 36.0299 188.691 33.2715L181.62 26.2005C181.434 26.3861 180.709 26.944 178.435 26.944V36.944ZM188.615 33.3459C191.379 30.6965 192.459 27.1665 192.459 23.496H182.459C182.459 25.2015 182.003 25.8314 181.696 26.1261L188.615 33.3459ZM192.459 23.496C192.459 19.8714 191.331 16.4413 188.615 13.8381L181.696 21.0579C182.051 21.3987 182.459 22.0006 182.459 23.496H192.459ZM188.691 13.9125C185.932 11.1541 182.178 10.24 178.435 10.24V20.24C180.709 20.24 181.434 20.7979 181.62 20.9835L188.691 13.9125ZM178.435 10.24H168.259V20.24H178.435V10.24ZM163.259 15.24V31.944H173.259V15.24H163.259ZM270.628 1.608H275.628V-3.392H270.628V1.608ZM270.628 14.76V19.76H275.628V14.76H270.628ZM252.772 14.76V9.76H247.772V14.76H252.772ZM252.772 69V74H257.772V69H252.772ZM236.356 69H231.356V74H236.356V69ZM236.356 14.76H241.356V9.76H236.356V14.76ZM218.5 14.76H213.5V19.76H218.5V14.76ZM218.5 1.608V-3.392H213.5V1.608H218.5ZM265.628 1.608V14.76H275.628V1.608H265.628ZM270.628 9.76H252.772V19.76H270.628V9.76ZM247.772 14.76V69H257.772V14.76H247.772ZM252.772 64H236.356V74H252.772V64ZM241.356 69V14.76H231.356V69H241.356ZM236.356 9.76H218.5V19.76H236.356V9.76ZM223.5 14.76V1.608H213.5V14.76H223.5ZM218.5 6.608H270.628V-3.392H218.5V6.608ZM302.963 1.608H307.963V-3.392H302.963V1.608ZM302.963 69V74H307.963V69H302.963ZM286.547 69H281.547V74H286.547V69ZM286.547 1.608V-3.392H281.547V1.608H286.547ZM297.963 1.608V69H307.963V1.608H297.963ZM302.963 64H286.547V74H302.963V64ZM291.547 69V1.608H281.547V69H291.547ZM286.547 6.608H302.963V-3.392H286.547V6.608ZM356.907 69L352.528 71.4128L353.954 74H356.907V69ZM342.891 43.56L347.271 41.1472L345.845 38.56H342.891V43.56ZM338.955 43.56V38.56H333.955V43.56H338.955ZM338.955 69V74H343.955V69H338.955ZM322.539 69H317.539V74H322.539V69ZM322.539 1.608V-3.392H317.539V1.608H322.539ZM363.627 4.392L361.391 8.86413L361.407 8.87174L361.422 8.87924L363.627 4.392ZM372.075 12.072L367.729 14.5435L367.74 14.5621L367.75 14.5806L372.075 12.072ZM371.019 34.824L366.976 31.8831L366.958 31.9074L366.941 31.9319L371.019 34.824ZM359.883 42.312L358.452 37.5212L352.364 39.3397L355.563 44.8294L359.883 42.312ZM375.435 69V74H384.136L379.756 66.4826L375.435 69ZM338.955 31.944H333.955V36.944H338.955V31.944ZM355.851 29.736L352.392 26.1261L352.354 26.1629L352.316 26.2005L355.851 29.736ZM355.851 17.448L352.316 20.9835L352.354 21.0211L352.392 21.0579L355.851 17.448ZM338.955 15.24V10.24H333.955V15.24H338.955ZM361.287 66.5872L347.271 41.1472L338.512 45.9728L352.528 71.4128L361.287 66.5872ZM342.891 38.56H338.955V48.56H342.891V38.56ZM333.955 43.56V69H343.955V43.56H333.955ZM338.955 64H322.539V74H338.955V64ZM327.539 69V1.608H317.539V69H327.539ZM322.539 6.608H350.091V-3.392H322.539V6.608ZM350.091 6.608C354.838 6.608 358.54 7.43858 361.391 8.86413L365.864 -0.08014C361.291 -2.36659 355.969 -3.392 350.091 -3.392V6.608ZM361.422 8.87924C364.411 10.3484 366.427 12.2538 367.729 14.5435L376.422 9.60048C374.012 5.36215 370.396 2.14755 365.833 -0.0952478L361.422 8.87924ZM367.75 14.5806C369.132 16.9631 369.859 19.6708 369.859 22.824H379.859C379.859 18.0412 378.731 13.5809 376.401 9.5634L367.75 14.5806ZM369.859 22.824C369.859 26.2804 368.895 29.2442 366.976 31.8831L375.063 37.7649C378.264 33.3638 379.859 28.3276 379.859 22.824H369.859ZM366.941 31.9319C365.208 34.3752 362.523 36.3052 358.452 37.5212L361.315 47.1028C367.1 45.3748 371.839 42.3128 375.098 37.7161L366.941 31.9319ZM355.563 44.8294L371.115 71.5174L379.756 66.4826L364.204 39.7946L355.563 44.8294ZM375.435 64H356.907V74H375.435V64ZM338.955 36.944H349.131V26.944H338.955V36.944ZM349.131 36.944C352.874 36.944 356.629 36.0299 359.387 33.2715L352.316 26.2005C352.13 26.3861 351.405 26.944 349.131 26.944V36.944ZM359.311 33.3459C362.076 30.6965 363.155 27.1665 363.155 23.496H353.155C353.155 25.2015 352.699 25.8314 352.392 26.1261L359.311 33.3459ZM363.155 23.496C363.155 19.8714 362.027 16.4413 359.311 13.8381L352.392 21.0579C352.748 21.3987 353.155 22.0006 353.155 23.496H363.155ZM359.387 13.9125C356.629 11.1541 352.874 10.24 349.131 10.24V20.24C351.405 20.24 352.13 20.7979 352.316 20.9835L359.387 13.9125ZM349.131 10.24H338.955V20.24H349.131V10.24ZM333.955 15.24V31.944H343.955V15.24H333.955Z" fill="black"/>
</svg>
